#!OML:ASF Y:\EmotionMaleHayes\Project 1\Capture day 1\Session 1\Male1.ASF
:FULLY-SPECIFIED
:DEGREES
425
root 43.2569 16.9442 -0.565985 804.567 79.7761 812.288
lowerback 10.2385 0.494944 -11.9337
upperback 4.90114 -0.175111 -3.25483
thorax -0.498871 -0.1071 3.28996
lowerneck -18.8284 2.46592 1.65666
upperneck 23.2445 3.56273 -1.4385
head 10.6453 1.67875 -0.258041
rclavicle 8.69683e-016 -1.59028e-015
rhumerus -54.5215 10.5707 -76.301
rradius 39.3599
rwrist -7.35931
rhand -6.99306 -31.4816
rfingers 7.12502
rthumb 18.8775 -60.5856
lclavicle 8.69683e-016 -1.59028e-015
lhumerus -12.4499 -34.9967 63.4563
lradius 94.7722
lwrist 20.3463
lhand -33.6309 -32.046
lfingers 7.12502
lthumb -6.82323 -2.17592
rfemur -8.50657 -0.0550951 2.06935
rtibia 23.6921
rfoot -18.0554 -4.4368
rtoes -9.51615
lfemur 5.81025 2.84425 -29.904
ltibia 5.55603
lfoot -4.62624 7.24535
ltoes 12.2197
426
root 43.3499 16.9242 -0.566253 807.123 79.547 814.771
lowerback 10.055 0.43817 -11.732
upperback 4.95815 -0.194378 -3.36277
thorax -0.339275 -0.119895 3.06752
lowerneck -18.4804 2.34822 1.422
upperneck 22.9722 3.44204 -1.34948
head 10.4709 1.61784 -0.210677
rclavicle 1.47598e-014 6.20208e-014
rhumerus -54.6208 8.92394 -75.4378
rradius 39.1135
rwrist -8.41957
rhand -7.82476 -32.0766
rfingers 7.12502
rthumb 18.0774 -61.2565
lclavicle 1.47598e-014 6.20208e-014
lhumerus -11.7745 -35.3578 63.1461
lradius 94.8164
lwrist 20.2519
lhand -34.4951 -32.9753
lfingers 7.12502
lthumb -7.65744 -3.13397
rfemur -7.64952 -0.312829 1.57528
rtibia 21.2642
rfoot -11.5555 -2.00516
rtoes 6.09677
lfemur 6.01985 2.90411 -30.1835
ltibia 5.66644
lfoot -4.76624 6.56533
ltoes 10.8227
427
root 43.4419 16.9003 -0.549258 808.523 79.3841 816.011
lowerback 9.91523 0.448069 -11.686
upperback 4.88776 -0.164864 -3.43251
thorax -0.342925 -0.101624 2.96623
lowerneck -18.4466 2.26718 1.32785
upperneck 22.988 3.32695 -1.22776
head 10.4642 1.5727 -0.168485
rclavicle -7.82715e-015 -1.13307e-014
rhumerus -54.8065 7.2624 -74.7043
rradius 38.8027
rwrist -9.72093
rhand -9.12497 -32.3888
rfingers 7.12502
rthumb 16.8261 -61.6798
lclavicle -7.82715e-015 -1.13307e-014
lhumerus -11.7342 -35.5122 63.2475
lradius 94.8108
lwrist 19.8222
lhand -35.1127 -34.1182
lfingers 7.12502
lthumb -8.25353 -4.29943
rfemur -8.16662 -0.105759 1.51764
rtibia 23.3905
rfoot -10.4385 0.328664
rtoes 13.6829
lfemur 6.16554 3.049 -30.1806
ltibia 5.66252
lfoot -4.82139 5.97413
ltoes 8.99691
428
root 43.52 16.8779 -0.544513 809.58 78.8651 816.864
lowerback 9.81865 0.499768 -11.7751
upperback 4.82944 -0.0898576 -3.66037
thorax -0.360421 -0.0565242 2.76851
lowerneck -18.2437 2.20722 1.15775
upperneck 22.8013 3.24627 -1.06006
head 10.3503 1.54334 -0.095815
rclavicle 1.01877e-014 4.29375e-014
rhumerus -54.8804 5.29896 -73.8728
rradius 38.4924
rwrist -10.6401
rhand -10.3563 -32.4203
rfingers 7.12502
rthumb 15.6405 -61.808
lclavicle 1.01877e-014 4.29375e-014
lhumerus -11.9253 -35.5692 63.6198
lradius 94.8061
lwrist 19.1181
lhand -35.5209 -35.3193
lfingers 7.12502
lthumb -8.6475 -5.51639
rfemur -9.07688 0.131341 1.00162
rtibia 25.7675
rfoot -12.9056 0.726813
rtoes 10.8065
lfemur 6.16579 3.19737 -30.7034
ltibia 5.77147
lfoot -4.96995 5.55895
ltoes 8.2672
429
root 43.6125 16.8504 -0.529668 810.638 78.389 817.876
lowerback 9.64392 0.556029 -11.9858
upperback 4.87669 0.00888653 -3.83357
thorax -0.222302 -0.011854 2.69245
lowerneck -18.6874 1.99766 1.27352
upperneck 23.1577 2.97491 -1.25424
head 10.5665 1.40206 -0.216038
rclavicle 3.27995e-015 1.55052e-014
rhumerus -54.8609 3.34361 -73.0632
rradius 37.9936
rwrist -11.1148
rhand -10.9295 -32.6535
rfingers 7.12502
rthumb 15.0885 -62.0836
lclavicle 3.27995e-015 1.55052e-014
lhumerus -12.2376 -35.7574 64.1359
lradius 94.7187
lwrist 18.3154
lhand -35.9411 -36.3686
lfingers 7.12502
lthumb -9.05297 -6.58284
rfemur -9.54218 0.739668 0.57054
rtibia 27.1196
rfoot -15.8947 -2.027
rtoes -0.685673
lfemur 6.46861 3.34319 -31.1501
ltibia 5.75444
lfoot -5.2381 5.10723
ltoes 8.87987
430
root 43.6818 16.8276 -0.53169 812.134 77.5685 819.217
lowerback 9.62061 0.577595 -12.3591
upperback 4.86243 0.0226004 -4.09284
thorax -0.218126 -5.70178e-005 2.62249
lowerneck -18.4392 2.04402 1.16061
upperneck 22.7824 3.01878 -1.09244
head 10.3783 1.43301 -0.138248
rclavicle 1.67476e-014 5.78463e-014
rhumerus -54.7291 1.50408 -72.2937
rradius 37.3004
rwrist -11.4542
rhand -10.9978 -33.3063
rfingers 7.12502
rthumb 15.0226 -62.7414
lclavicle 1.67476e-014 5.78463e-014
lhumerus -12.6046 -36.0207 64.8304
lradius 94.4198
lwrist 17.3687
lhand -36.3287 -37.4052
lfingers 7.12502
lthumb -9.42699 -7.63602
rfemur -9.90151 0.676074 -0.397697
rtibia 28.0927
rfoot -16.8793 -4.62586
rtoes -9.06183
lfemur 6.50553 3.44612 -32.1561
ltibia 5.84232
lfoot -5.4408 4.59513
ltoes 8.92473
431
root 43.7455 16.7932 -0.494157 812.121 78.3081 819.4
lowerback 9.95697 0.745475 -11.6624
upperback 4.9282 0.247748 -3.82337
thorax -0.375987 0.120068 2.50112
lowerneck -18.9128 1.82649 1.20429
upperneck 22.9915 2.7602 -1.33007
head 10.5458 1.28448 -0.261813
rclavicle 1.55797e-014 7.23576e-014
rhumerus -54.5151 -0.289651 -71.5454
rradius 36.4167
rwrist -11.5602
rhand -11.4305 -33.7472
rfingers 7.12502
rthumb 14.6058 -63.2129
lclavicle 1.55797e-014 7.23576e-014
lhumerus -13.2252 -36.2492 65.8207
lradius 94.04
lwrist 16.3289
lhand -36.6153 -38.4621
lfingers 7.12502
lthumb -9.70351 -8.70564
rfemur -9.72573 1.72878 0.881739
rtibia 27.9134
rfoot -15.6529 -4.77234
rtoes -2.1551
lfemur 6.98609 3.53628 -30.8846
ltibia 5.78516
lfoot -5.52739 4.48447
ltoes 6.67842
432
root 43.8172 16.7838 -0.483535 813.773 77.0435 820.877
lowerback 9.87161 0.769582 -12.7141
upperback 4.87668 0.215862 -4.09069
thorax -0.360436 0.101689 2.79765
lowerneck -18.6278 1.86128 1.41767
upperneck 22.708 2.84137 -1.71939
head 10.3996 1.29548 -0.427873
rclavicle -1.24489e-014 -3.27995e-014
rhumerus -54.1561 -2.06048 -70.6919
rradius 35.3323
rwrist -11.1319
rhand -11.8868 -34.0015
rfingers 7.12502
rthumb 14.1661 -63.4985
lclavicle -1.24489e-014 -3.27995e-014
lhumerus -14.315 -36.3486 67.1515
lradius 93.6705
lwrist 15.2729
lhand -36.8115 -39.2137
lfingers 7.12502
lthumb -9.8928 -9.46615
rfemur -9.58398 0.867074 -0.70028
rtibia 28.0269
rfoot -15.1735 -3.80865
rtoes 2.69884
lfemur 7.0175 3.77916 -32.2996
ltibia 5.8743
lfoot -5.58316 3.87379
ltoes 4.40059
433
root 43.8912 16.7853 -0.468077 813.766 76.5771 821.001
lowerback 10.1154 0.894899 -13.1553
upperback 4.80961 0.298475 -4.10405
thorax -0.57068 0.152436 3.01308
lowerneck -18.8089 1.80767 1.74383
upperneck 22.9057 2.77527 -2.1052
head 10.5161 1.24581 -0.62734
rclavicle 6.06293e-015 4.6118e-014
rhumerus -53.7794 -3.7577 -69.7424
rradius 34.1011
rwrist -10.2371
rhand -12.1752 -34.1037
rfingers 7.12502
rthumb 13.8881 -63.6199
lclavicle 6.06293e-015 4.6118e-014
lhumerus -15.9475 -36.2921 68.8504
lradius 93.2114
lwrist 14.0376
lhand -36.8712 -39.6159
lfingers 7.12502
lthumb -9.95034 -9.87113
rfemur -9.23498 0.709135 -1.20602
rtibia 28.1689
rfoot -15.1183 -3.7204
rtoes 3.6922
lfemur 7.50393 3.97433 -32.6935
ltibia 5.74836
lfoot -5.78593 3.6036
ltoes 4.09772
434
root 43.9643 16.8078 -0.457785 812.708 76.4555 819.649
lowerback 9.72273 1.02493 -13.2073
upperback 4.75911 0.522738 -4.1057
thorax -0.44146 0.255135 3.01958
lowerneck -18.9383 1.91028 2.11218
upperneck 22.884 2.90671 -2.50172
head 10.5484 1.28782 -0.810542
rclavicle -5.91384e-015 1.19271e-015
rhumerus -53.109 -5.38775 -69.0301
rradius 32.6666
rwrist -9.31884
rhand -12.748 -33.9894
rfingers 7.12502
rthumb 13.3361 -63.5426
lclavicle -5.91384e-015 1.19271e-015
lhumerus -17.5259 -36.0291 70.4885
lradius 92.544
lwrist 12.5896
lhand -36.8255 -40.0614
lfingers 7.12502
lthumb -9.90634 -10.3145
rfemur -9.44371 1.14059 -1.25253
rtibia 28.1938
rfoot -15.1667 -4.01899
rtoes 3.86116
lfemur 7.51321 4.19917 -32.7353
ltibia 5.65377
lfoot -6.0184 3.60223
ltoes 4.13024
435
root 44.0404 16.8168 -0.450404 811.852 77.7147 818.97
lowerback 9.79505 1.10093 -11.7217
upperback 4.84085 0.724034 -3.76571
thorax -0.441368 0.358855 2.54612
lowerneck -19.244 2.02949 2.56879
upperneck 22.9089 3.06277 -3.02405
head 10.637 1.33045 -1.04915
rclavicle 9.42985e-015 3.88624e-014
rhumerus -52.3469 -6.93616 -68.4056
rradius 31.2654
rwrist -8.18573
rhand -13.2354 -34.2588
rfingers 7.12502
rthumb 12.8663 -63.8422
lclavicle 9.42985e-015 3.88624e-014
lhumerus -19.0951 -35.6827 72.1789
lradius 91.603
lwrist 11.2313
lhand -36.6541 -40.585
lfingers 7.12502
lthumb -9.7409 -10.8303
rfemur -8.75099 1.94905 0.466885
rtibia 27.634
rfoot -15.17 -4.42802
rtoes 3.43998
lfemur 8.17555 4.06086 -31.2049
ltibia 5.43303
lfoot -6.3605 3.93869
ltoes 3.49403
436
root 44.1101 16.8417 -0.447266 811.849 77.0622 818.982
lowerback 9.77503 1.10778 -12.2095
upperback 4.8102 0.698988 -3.89368
thorax -0.453975 0.346221 2.68082
lowerneck -19.3756 2.07259 2.76323
upperneck 22.9201 3.13842 -3.32187
head 10.6775 1.34344 -1.17668
rclavicle 2.43511e-015 5.08889e-014
rhumerus -51.5163 -8.4495 -67.7588
rradius 29.9743
rwrist -6.57087
rhand -13.5226 -34.9188
rfingers 7.12502
rthumb 12.5894 -64.5194
lclavicle 2.43511e-015 5.08889e-014
lhumerus -20.7905 -35.0585 73.9468
lradius 90.404
lwrist 10.0127
lhand -36.3084 -40.9872
lfingers 7.12502
lthumb -9.40735 -11.2171
rfemur -8.06877 1.85641 -0.365047
rtibia 26.9673
rfoot -14.9988 -4.2692
rtoes 3.07792
lfemur 8.42965 3.96862 -32.0686
ltibia 5.51692
lfoot -6.72228 4.01418
ltoes 2.61276
437
root 44.1766 16.871 -0.439533 811.362 77.1765 818.73
lowerback 10.0008 1.10662 -12.0725
upperback 4.85194 0.675721 -3.77643
thorax -0.533132 0.336675 2.729
lowerneck -19.6999 2.10245 2.6498
upperneck 23.0228 3.18754 -3.2431
head 10.7755 1.36005 -1.12046
rclavicle -2.36057e-016 -6.4605e-015
rhumerus -50.5333 -9.76208 -67.2841
rradius 28.7869
rwrist -4.98364
rhand -13.9077 -35.4726
rfingers 7.12502
rthumb 12.2181 -65.0957
lclavicle -2.36057e-016 -6.4605e-015
lhumerus -22.5202 -34.0807 75.7158
lradius 89.0558
lwrist 8.77991
lhand -35.8197 -41.1702
lfingers 7.12502
lthumb -8.93579 -11.3794
rfemur -7.12501 2.04078 -0.152793
rtibia 26.1768
rfoot -14.8699 -4.22424
rtoes 3.03945
lfemur 9.0094 3.6602 -31.9888
ltibia 5.43657
lfoot -7.14167 4.32356
ltoes 2.60017
438
root 44.2473 16.8979 -0.433723 812.517 77.2493 820.139
lowerback 10.3518 0.992144 -11.9537
upperback 4.78595 0.466803 -3.61508
thorax -0.771283 0.24338 2.85214
lowerneck -19.8687 2.17471 2.53362
upperneck 23.192 3.30172 -3.13506
head 10.87 1.41321 -1.0439
rclavicle -1.01753e-014 -6.8854e-014
rhumerus -49.7911 -10.5397 -67.0621
rradius 27.954
rwrist -3.83512
rhand -14.3717 -36.0929
rfingers 7.12502
rthumb 11.7706 -65.7421
lclavicle -1.01753e-014 -6.8854e-014
lhumerus -24.4902 -33.0278 77.6316
lradius 87.5671
lwrist 7.71136
lhand -35.1242 -40.8977
lfingers 7.12502
lthumb -8.26464 -11.0793
rfemur -5.84211 1.84625 -0.0564863
rtibia 25.0998
rfoot -14.6951 -4.17038
rtoes 3.3486
lfemur 9.63121 3.1526 -31.9926
ltibia 5.3484
lfoot -7.45248 4.53785
ltoes 3.2921
